# xmcd CD database file
#
# Track frame offsets:
#	150
#	27750
#	51673
#	71301
#	80494
#	107719
#	136262
#	164670
#	190418
#	205491
#
# Disc length: 3073 seconds
#
# Revision: 0
# Processed by: cddbd v1.5.1PL2 Copyright (c) Steve Scherf et al.
# Submitted via: CDex 1.51
#
DISCID=910bff0a
DTITLE=The Malford Milligan Band - No good deed goes unpunished
DYEAR=2006
DGENRE=Blues
TTITLE0=Can't take my eyes off of you
TTITLE1=Open your eyes
TTITLE2=Redemption
TTITLE3=Darkness
TTITLE4=Don't cry for me
TTITLE5=Death don't have no mercy
TTITLE6=Time of dying
TTITLE7=Paper
TTITLE8=About you
TTITLE9=Find your way home
EXTD=YEAR: 2006
EXTT0=
EXTT1=
EXTT2=
EXTT3=
EXTT4=
EXTT5=
EXTT6=
EXTT7=
EXTT8=
EXTT9=
PLAYORDER=
